# xmcd CD database file
#
# Track frame offsets:
#	150
#	20407
#	39987
#	54187
#	73265
#	94897
#	116200
#	129615
#	149492
#	168660
#
# Disc length: 2478 seconds
#
# Revision: 0
# Processed by: cddbd v1.5.1PL0 Copyright (c) Steve Scherf et al.
# Submitted via: CDex 1.51
#
DISCID=9209ac0a
DTITLE=Jay Jay Johnson - The Eminent Jay Jay Johnson Volume 2
DYEAR=1955
DGENRE=Jazz
TTITLE0="Daylie" Double
TTITLE1=Pennies From Heaven
TTITLE2=You're Mine You
TTITLE3=Turnpike (Alternate Master)
TTITLE4=It Could Happen To You
TTITLE5=Groovin'
TTITLE6=Portrait Of Jennie
TTITLE7=Viscosity
TTITLE8=Time After Time
TTITLE9=Capri (Alternate Master)
EXTD=YEAR: 1955
EXTT0=
EXTT1=
EXTT2=
EXTT3=
EXTT4=
EXTT5=
EXTT6=
EXTT7=
EXTT8=
EXTT9=
PLAYORDER=
